<svg xmlns="http://www.w3.org/2000/svg" width="9.8" height="9.98" viewBox="0 0 9.8 9.98">
  <path id="Remove" d="M118.14,186.752v-.07l-.027-.083-.041-.069-.056-.056-1.15-1.179,1.15-1.179.056-.054.041-.07.027-.083v-.166l-.027-.084-.041-.054-.056-.07-.569-.6-.069-.041-.07-.041-.069-.029h-.167l-.069.029-.07.041-.069.041-1.152,1.177-1.164-1.177-.069-.041-.07-.041-.069-.029h-.166l-.07.029-.069.041-.07.041-.569.6-.056.07-.041.054-.027.084v.166l.027.083.041.07.056.054,1.15,1.179-1.15,1.179-.056.056-.041.069-.027.083v.167l.027.083.041.056.056.069.569.6.07.041.069.043.07.027h.166l.069-.027.07-.043.069-.041,1.164-1.177,1.152,1.177.069.041.07.043.069.027h.167l.069-.027.07-.043.069-.041.569-.6.056-.069.041-.056.027-.083Zm1.816-3.95.166.291.126.29.11.291.084.319.083.319.056.319.013.333.014.333-.014.333-.013.333-.056.319-.083.319-.084.319-.11.291-.126.291-.166.29-.166.291-.194.263-.194.25-.221.236-.236.207-.25.209-.236.18-.277.18-.291.167-.29.124-.306.124-.29.083-.32.084-.319.054-.319.029-.333.014-.331-.014-.32-.029-.319-.054-.319-.084-.291-.083-.3-.124-.291-.124-.29-.167-.264-.18-.263-.18-.25-.209-.221-.207-.221-.236-.209-.25-.194-.263-.166-.291-.153-.29-.139-.291-.1-.291-.1-.319-.083-.319-.041-.319-.027-.333-.014-.333.014-.333.027-.333.041-.319.083-.319.1-.319.1-.291.139-.29.153-.291.166-.291.194-.263.209-.25.221-.236.221-.207.25-.209.263-.18.264-.18.29-.166.291-.126.3-.124.291-.083.319-.084.319-.054.32-.029.331-.013.333.013.319.029.319.054.32.084.29.083.306.124.29.126.291.166.277.18.236.18.25.209.236.207.221.236.194.25.194.263Z" transform="translate(-110.807 -180.307)" fill="#6e6e6e" fill-rule="evenodd"/>
</svg>
